<svg width="512" height="512" viewBox="0 0 512 512" fill="none" xmlns="http://www.w3.org/2000/svg">
<g clip-path="url(#clip0_152_7)">
<rect width="512" height="512" rx="20" fill="white"/>
<rect width="512" height="512" fill="#D4D4D4"/>
<mask id="path-3-outside-1_152_7" maskUnits="userSpaceOnUse" x="101" y="72" width="327" height="367" fill="black">
<rect fill="white" x="101" y="72" width="327" height="367"/>
<path d="M169.365 431C152.601 431 139.824 428.884 131.035 424.652C122.409 420.421 116.549 413.503 113.457 403.9C110.527 394.298 109.062 381.521 109.062 365.57V146.332C109.062 130.056 110.527 117.198 113.457 107.758C116.549 98.1549 122.409 91.319 131.035 87.25C139.824 83.0182 152.601 80.9023 169.365 80.9023H244.316C279.31 80.9023 309.909 86.1107 336.113 96.5273C362.48 106.944 382.988 124.604 397.637 149.506C412.285 174.245 419.609 208.262 419.609 251.557C419.609 294.851 412.285 329.682 397.637 356.049C382.988 382.253 362.48 401.296 336.113 413.178C309.909 425.059 279.31 431 244.316 431H169.365ZM215.752 145.111C205.01 145.111 197.686 147.39 193.779 151.947C189.873 156.505 187.92 164.317 187.92 175.385V336.518C187.92 347.423 189.873 355.235 193.779 359.955C197.686 364.675 205.01 367.035 215.752 367.035H226.982C261.813 367.035 288.75 358.49 307.793 341.4C326.999 324.311 336.602 294.688 336.602 252.533C336.602 224.376 332.207 202.566 323.418 187.104C314.792 171.479 302.259 160.574 285.82 154.389C269.382 148.204 249.606 145.111 226.494 145.111H215.752Z"/>
</mask>
<path d="M169.365 431C152.601 431 139.824 428.884 131.035 424.652C122.409 420.421 116.549 413.503 113.457 403.9C110.527 394.298 109.062 381.521 109.062 365.57V146.332C109.062 130.056 110.527 117.198 113.457 107.758C116.549 98.1549 122.409 91.319 131.035 87.25C139.824 83.0182 152.601 80.9023 169.365 80.9023H244.316C279.31 80.9023 309.909 86.1107 336.113 96.5273C362.48 106.944 382.988 124.604 397.637 149.506C412.285 174.245 419.609 208.262 419.609 251.557C419.609 294.851 412.285 329.682 397.637 356.049C382.988 382.253 362.48 401.296 336.113 413.178C309.909 425.059 279.31 431 244.316 431H169.365ZM215.752 145.111C205.01 145.111 197.686 147.39 193.779 151.947C189.873 156.505 187.92 164.317 187.92 175.385V336.518C187.92 347.423 189.873 355.235 193.779 359.955C197.686 364.675 205.01 367.035 215.752 367.035H226.982C261.813 367.035 288.75 358.49 307.793 341.4C326.999 324.311 336.602 294.688 336.602 252.533C336.602 224.376 332.207 202.566 323.418 187.104C314.792 171.479 302.259 160.574 285.82 154.389C269.382 148.204 249.606 145.111 226.494 145.111H215.752Z" fill="black"/>
<path d="M131.035 424.652L127.512 431.835L127.538 431.848L127.565 431.86L131.035 424.652ZM113.457 403.9L105.805 406.235L105.823 406.294L105.842 406.353L113.457 403.9ZM113.457 107.758L105.842 105.306L105.829 105.346L105.817 105.387L113.457 107.758ZM131.035 87.25L134.448 94.4854L134.477 94.4719L134.506 94.458L131.035 87.25ZM336.113 96.5273L333.158 103.962L333.166 103.965L333.174 103.968L336.113 96.5273ZM397.637 149.506L390.741 153.562L390.747 153.572L390.753 153.582L397.637 149.506ZM397.637 356.049L404.62 359.952L404.625 359.943L404.63 359.934L397.637 356.049ZM336.113 413.178L332.827 405.884L332.818 405.888L332.81 405.892L336.113 413.178ZM307.793 341.4L302.475 335.424L302.462 335.435L302.45 335.446L307.793 341.4ZM323.418 187.104L316.414 190.97L316.438 191.014L316.463 191.057L323.418 187.104ZM169.365 431V423C153.057 423 141.697 420.907 134.506 417.444L131.035 424.652L127.565 431.86C137.952 436.861 152.145 439 169.365 439V431ZM131.035 424.652L134.559 417.47C127.988 414.247 123.536 409.1 121.072 401.448L113.457 403.9L105.842 406.353C109.563 417.906 116.83 426.594 127.512 431.835L131.035 424.652ZM113.457 403.9L121.109 401.566C118.505 393.03 117.062 381.137 117.062 365.57H109.062H101.062C101.062 381.905 102.55 395.565 105.805 406.235L113.457 403.9ZM109.062 365.57H117.062V146.332H109.062H101.062V365.57H109.062ZM109.062 146.332H117.062C117.062 130.412 118.51 118.466 121.098 110.129L113.457 107.758L105.817 105.387C102.545 115.929 101.062 129.7 101.062 146.332H109.062ZM113.457 107.758L121.072 110.21C123.53 102.578 127.95 97.5506 134.448 94.4854L131.035 87.25L127.622 80.0146C116.868 85.0875 109.569 93.7322 105.842 105.306L113.457 107.758ZM131.035 87.25L134.506 94.458C141.697 90.9956 153.057 88.9023 169.365 88.9023V80.9023V72.9023C152.145 72.9023 137.952 75.0409 127.565 80.042L131.035 87.25ZM169.365 80.9023V88.9023H244.316V80.9023V72.9023H169.365V80.9023ZM244.316 80.9023V88.9023C278.533 88.9023 308.091 93.9968 333.158 103.962L336.113 96.5273L339.068 89.0932C311.727 78.2245 280.086 72.9023 244.316 72.9023V80.9023ZM336.113 96.5273L333.174 103.968C357.848 113.716 376.979 130.166 390.741 153.562L397.637 149.506L404.532 145.45C388.998 119.042 367.113 100.172 339.053 89.0869L336.113 96.5273ZM397.637 149.506L390.753 153.582C404.391 176.615 411.609 209.025 411.609 251.557H419.609H427.609C427.609 207.5 420.179 171.876 404.521 145.43L397.637 149.506ZM419.609 251.557H411.609C411.609 294.047 404.406 327.391 390.643 352.164L397.637 356.049L404.63 359.934C420.164 331.972 427.609 295.655 427.609 251.557H419.609ZM397.637 356.049L390.654 352.145C376.808 376.914 357.568 394.735 332.827 405.884L336.113 413.178L339.4 420.471C367.393 407.857 389.169 387.593 404.62 359.952L397.637 356.049ZM336.113 413.178L332.81 405.892C307.842 417.212 278.412 423 244.316 423V431V439C280.208 439 311.975 432.906 339.417 420.464L336.113 413.178ZM244.316 431V423H169.365V431V439H244.316V431ZM215.752 145.111V137.111C204.404 137.111 193.979 139.422 187.705 146.741L193.779 151.947L199.853 157.154C201.392 155.358 205.616 153.111 215.752 153.111V145.111ZM193.779 151.947L187.705 146.741C181.868 153.551 179.92 163.832 179.92 175.385H187.92H195.92C195.92 164.802 197.878 159.458 199.853 157.154L193.779 151.947ZM187.92 175.385H179.92V336.518H187.92H195.92V175.385H187.92ZM187.92 336.518H179.92C179.92 347.986 181.898 358.146 187.616 365.056L193.779 359.955L199.942 354.855C197.848 352.324 195.92 346.859 195.92 336.518H187.92ZM193.779 359.955L187.616 365.056C193.871 372.614 204.336 375.035 215.752 375.035V367.035V359.035C205.684 359.035 201.5 356.737 199.942 354.855L193.779 359.955ZM215.752 367.035V375.035H226.982V367.035V359.035H215.752V367.035ZM226.982 367.035V375.035C263.066 375.035 292.166 366.174 313.136 347.354L307.793 341.4L302.45 335.446C285.334 350.807 260.56 359.035 226.982 359.035V367.035ZM307.793 341.4L313.111 347.377C334.853 328.03 344.602 295.555 344.602 252.533H336.602H328.602C328.602 293.821 319.144 320.591 302.475 335.424L307.793 341.4ZM336.602 252.533H344.602C344.602 223.721 340.135 200.324 330.373 183.15L323.418 187.104L316.463 191.057C324.279 204.807 328.602 225.03 328.602 252.533H336.602ZM323.418 187.104L330.422 183.237C320.891 165.975 306.889 153.768 288.637 146.901L285.82 154.389L283.003 161.876C297.629 167.379 308.692 176.982 316.414 190.97L323.418 187.104ZM285.82 154.389L288.637 146.901C271.064 140.289 250.281 137.111 226.494 137.111V145.111V153.111C248.931 153.111 267.699 156.118 283.003 161.876L285.82 154.389ZM226.494 145.111V137.111H215.752V145.111V153.111H226.494V145.111Z" fill="white" mask="url(#path-3-outside-1_152_7)"/>
<g clip-path="url(#clip1_152_7)">
<path d="M246.247 260.5C248.394 260.5 250.454 261.353 251.973 262.871L265.508 276.407L265.547 276.445L265.605 276.504L265.653 276.543L279.129 290.019V290.02C280.648 291.539 281.501 293.6 281.5 295.749C281.499 297.898 280.645 299.959 279.125 301.478C277.605 302.996 275.544 303.848 273.396 303.848C271.247 303.847 269.187 302.992 267.668 301.473L259.82 293.625L258.76 294.686L211.243 342.205L210.183 343.266L211.243 344.326L224.816 357.9C226.461 359.544 227.765 361.496 228.655 363.644C229.545 365.791 230.003 368.094 230.003 370.419C230.003 372.744 229.545 375.046 228.655 377.193C227.765 379.341 226.461 381.293 224.816 382.937V382.938L200.876 406.879C194.77 412.986 187.083 417.272 178.679 419.256C170.274 421.24 161.483 420.844 153.291 418.113L144.181 415.08H144.182C140.161 413.739 136.508 411.479 133.512 408.481C130.516 405.484 128.259 401.83 126.92 397.809V397.808L123.887 388.707C121.156 380.514 120.76 371.722 122.744 363.317C124.728 354.913 129.014 347.226 135.12 341.12V341.119L159.062 317.168C160.705 315.524 162.656 314.219 164.804 313.329C166.951 312.439 169.253 311.982 171.578 311.981C173.903 311.981 176.206 312.439 178.354 313.329C180.501 314.219 182.452 315.524 184.096 317.168L197.669 330.752L198.729 331.813L199.791 330.752L247.308 283.232L248.368 282.172L240.521 274.324H240.521C239.003 272.805 238.149 270.745 238.149 268.598C238.149 266.45 239.003 264.39 240.521 262.871L240.521 262.87C242.039 261.352 244.1 260.5 246.247 260.5Z" fill="white" stroke="black" stroke-width="3"/>
</g>
</g>
<defs>
<clipPath id="clip0_152_7">
<rect width="512" height="512" rx="20" fill="white"/>
</clipPath>
<clipPath id="clip1_152_7">
<rect width="340" height="340" fill="white" transform="translate(86 86)"/>
</clipPath>
</defs>
</svg>
